<svg width="29" height="27" viewBox="0 0 29 27" fill="none" xmlns="http://www.w3.org/2000/svg">
<rect x="0.5" y="0.5" width="28" height="26" stroke="#EDEDED"/>
<path d="M22.9583 7.875H10.875C9.54583 7.875 8.45833 8.8875 8.45833 10.125V21.375C8.45833 22.6125 9.54583 23.625 10.875 23.625H22.9583C24.2875 23.625 25.375 22.6125 25.375 21.375V10.125C25.375 8.8875 24.2875 7.875 22.9583 7.875ZM22.9583 10.125V12.375H10.875V10.125H22.9583ZM15.7083 16.875V14.625H18.125V16.875H15.7083ZM18.125 19.125V21.375H15.7083V19.125H18.125ZM13.2917 16.875H10.875V14.625H13.2917V16.875ZM20.5417 14.625H22.9583V16.875H20.5417V14.625ZM10.875 19.125H13.2917V21.375H10.875V19.125ZM20.5417 21.375V19.125H22.9583V21.375H20.5417ZM7.25 19.125H6.04167C4.7125 19.125 3.625 18.1125 3.625 16.875V5.625C3.625 4.3875 4.7125 3.375 6.04167 3.375H18.125C19.4542 3.375 20.5417 4.3875 20.5417 5.625V6.75H18.125V5.625H6.04167V16.875H7.25V19.125Z" fill="#585858"/>
</svg>
